<svg width="215" height="215" viewBox="0 0 215 215" fill="none" xmlns="http://www.w3.org/2000/svg">
<path d="M107.5 215C166.877 215 215 166.877 215 107.5C215 48.1231 166.877 0 107.5 0C48.1231 0 0 48.1231 0 107.5C0 166.877 48.1231 215 107.5 215ZM87.5957 150.038L71.2188 144.369C68.4893 143.445 65.5078 143.403 62.7783 144.243L56.3535 146.301C48.585 148.778 40.1865 145.293 36.4072 138.112L35.0215 135.509C30.5703 127.068 34.0557 116.612 42.6641 112.539L57.4873 105.484C58.4531 105.022 59.335 104.309 59.9648 103.469L62.1904 100.529C65.2139 96.498 70.001 94.1045 75.04 94.1045C80.0791 94.1045 84.8662 96.498 87.8896 100.529L89.8213 103.091C90.6611 104.183 91.8789 104.98 93.2227 105.232C96.498 105.904 99.8154 104.603 101.789 101.915L106.156 95.9521C106.996 94.7764 108.382 94.1045 109.81 94.1045C111.657 94.1045 113.337 95.2383 114.009 96.96L118.25 107.836C119.426 110.859 121.063 113.715 123.079 116.318L130.596 125.893C133.031 129 134.375 132.863 134.375 136.811C134.375 140.758 133.031 144.621 130.596 147.729L125.557 154.195C122.071 158.646 116.738 161.25 111.111 161.25C107.584 161.25 104.141 160.242 101.159 158.311L90.4932 151.424C89.5693 150.836 88.6035 150.374 87.5957 149.996V150.038ZM114.975 59.8389L124.297 69.1611C128.538 73.4023 125.515 80.625 119.552 80.625H106.996C104.645 80.625 102.335 80.1211 100.193 79.1973L82.2207 71.2188C76.2158 68.5732 77.2236 59.7549 83.6484 58.4951L99.8154 55.2617C105.316 54.1699 111.027 55.8916 114.975 59.8389ZM104.141 181.406C104.141 177.711 107.164 174.688 110.859 174.688H117.578C121.273 174.688 124.297 177.711 124.297 181.406C124.297 185.102 121.273 188.125 117.578 188.125H110.859C107.164 188.125 104.141 185.102 104.141 181.406ZM181.07 125.515L184.43 135.593C185.605 139.12 183.716 142.899 180.188 144.075C176.661 145.251 172.882 143.361 171.706 139.834L168.347 129.756C167.171 126.229 169.061 122.449 172.588 121.273C176.115 120.098 179.895 121.987 181.07 125.515ZM172.714 159.276L159.276 172.714C156.673 175.317 152.39 175.317 149.786 172.714C147.183 170.11 147.183 165.827 149.786 163.224L163.224 149.786C165.827 147.183 170.11 147.183 172.714 149.786C175.317 152.39 175.317 156.673 172.714 159.276Z" fill="#F65E59"/>
</svg>
