<svg width="215" height="215" viewBox="0 0 298 238" fill="none" xmlns="http://www.w3.org/2000/svg">
<path d="M235.653 59.0817C227.286 49.7058 207.035 30.424 178.521 26.0313C168.044 24.4722 157.386 27.7075 148.995 34.4961C140.619 28.1091 129.956 24.832 119.433 26.431C82.3225 32.1533 58.9947 63.3117 58.0169 64.6598C54.3645 69.629 55.4415 76.6156 60.4032 80.2646C62.3965 81.7321 64.7247 82.4294 67.0104 82.4294C70.4588 82.4294 73.8504 80.8605 76.0342 77.8823C76.2234 77.6207 94.7477 52.8225 122.83 48.4902C126.302 48.0434 129.805 48.8016 132.868 50.5741L105.79 78.1867C100.016 83.9043 96.4309 91.1559 96.4309 99.709C96.4309 107.844 99.6028 115.486 105.352 121.227C111.517 126.995 119.153 129.738 127.302 129.738C135.45 129.738 143.105 126.571 148.865 120.818L154.15 115.542L211.98 162.444C213.057 163.316 213.217 164.885 212.213 166.149L199.32 182.767C198.461 183.813 196.876 183.973 195.988 183.261L185.642 174.573L173.447 187.473C172.356 188.809 170.959 189.129 170.232 189.202C169.46 189.274 168.107 189.26 167.06 188.403L151.969 175.545L144.67 182.358L143.36 183.724C140.639 187.051 136.8 189.144 132.521 189.581C128.112 189.959 124.023 188.767 121.113 186.428L79.2959 148.657H44.7V59.6395H0V178.454L29.8 178.472C35.2664 178.472 39.8435 175.355 42.4371 170.97H70.6726L106.554 203.351C113.473 208.994 121.947 211.969 130.747 211.969C132.086 211.969 133.439 211.911 134.778 211.765C141.12 211.112 147.075 208.947 152.225 205.49L152.647 205.868C158.248 210.458 165.349 212.566 172.524 211.808C178.666 211.169 184.295 208.54 188.314 204.673C198.134 208.479 209.774 205.763 216.833 197.017L229.726 180.399C238.327 169.791 236.697 154.145 226.074 145.531L170.059 100.088L173.962 96.1915C178.327 91.8332 178.327 84.7703 173.962 80.4147C169.597 76.0564 162.526 76.0564 158.158 80.4147L133.076 105.427C130.002 108.541 124.648 108.541 121.575 105.427C120.033 103.901 119.188 101.867 119.188 99.7044C119.188 97.5252 120.032 95.491 121.647 93.8799L161.649 53.141C165.287 49.4943 170.277 47.679 175.124 48.4786C202.945 52.7644 221.78 77.6382 221.966 77.8985C223.404 79.83 225.349 81.1273 227.479 81.7921H253.3V163.186C253.3 171.4 259.972 178.084 267.781 178.084L298 178.5V59.5465L235.653 59.0817ZM22.35 163.625C18.2758 163.625 14.9 160.257 14.9 156.192C14.9 152.066 18.2758 148.759 22.35 148.759C26.4242 148.759 29.8 152.097 29.8 156.234C29.8 160.278 26.4242 163.625 22.35 163.625ZM275.65 163.625C271.576 163.625 268.2 160.257 268.2 156.192C268.2 152.066 271.576 148.759 275.65 148.759C279.724 148.759 283.1 152.068 283.1 156.192C283.1 160.278 279.747 163.625 275.65 163.625Z" fill="#F65E59"/>
</svg>
